[Header]
FileType HTR
DataType HTRS
FileVersion 1
NumSegments 28
NumFrames 5
DataFrameRate 24
EulerRotationOrder ZYX
CalibrationUnits mm
RotationUnits Degrees
GlobalAxisofGravity Y
BoneLengthAxis Y
ScaleFactor 1.0
[SegmentNames&Hierarchy]
waist	GLOBAL
chest	waist
head	chest
joint2	chest
right_shoulder1	joint2
right_elbow1	right_shoulder1
right_wrist1	right_elbow1
right_hand1	right_wrist1
right_finger3	right_hand1
right_finger4	right_hand1
right_finger5	right_hand1
joint3	chest
right_shoulder2	joint3
right_elbow2	right_shoulder2
right_wrist2	right_elbow2
right_hand2	right_wrist2
right_finger6	right_hand2
right_finger7	right_hand2
right_finger8	right_hand2
Center_pelvis	waist
left_pelvs	Center_pelvis
left_leg	left_pelvs
left_knee	left_leg
left_foot	left_knee
right_pelvis	Center_pelvis
right_leg	right_pelvis
right_knee	right_leg
right_foot	right_knee
[BasePosition]
waist	0	0	0	179.9999991	0	91.33221985	1
chest	0	0	0	-2.307808268e-010	-1.984983424e-008	1.332219854	1
head	0	0	0	180	-1.481061187e-024	90	1
joint2	0	0	0	4.615476202e-010	-1.707085745e-006	90	1
right_shoulder1	0	0	0	1.916575325e-008	-1.983803253e-008	-88.02506599	1
right_elbow1	0	0	0	-180	-1.948815659e-008	-12.92899665	1
right_wrist1	0	0	0	3.256551172e-010	1.942478841e-008	1.920938916	1
right_hand1	0	0	0	136.2194085	85.17676588	-133.4832578	1
right_finger3	0	0	0	154.4596717	79.84057755	147.6247455	1
right_finger4	0	0	0	154.4596717	79.84057755	147.6247455	1
right_finger5	0	0	0	154.4596717	79.84057755	147.6247455	1
joint3	0	0	0	-180	-1.89575832e-022	90	1
right_shoulder2	0	0	0	6.774897105e-015	-7.012540931e-015	-88.02506599	1
right_elbow2	0	0	0	-180	-6.888863384e-015	-12.92899665	1
right_wrist2	0	0	0	-1.240805042e-012	-7.401196581e-011	1.920938916	1
right_hand2	0	0	0	136.2194085	85.17676588	-133.4832578	1
right_finger6	0	0	0	154.4596717	79.84057755	147.6247455	1
right_finger7	0	0	0	154.4596717	79.84057755	147.6247455	1
right_finger8	0	0	0	154.4596717	79.84057755	147.6247455	1
Center_pelvis	0	0	0	-180	-8.537716493e-007	89.87586122	1
left_pelvs	0	0	0	0	0	-1.456358634	1
left_leg	0	0	0	179.9999991	0	88.69804733	1
left_knee	0	0	0	-180	-7.863991589e-009	-2.076172838	1
left_foot	0	0	0	179.9999985	-3.055580289e-010	-90.77422016	1
right_pelvis	0	0	0	0	0	-2.39554958	1
right_leg	0	0	0	0	0	-87.75885638	1
right_knee	0	0	0	179.9999991	3.702652968e-022	-2.076172838	1
right_foot	0	0	0	180	-7.405305937e-025	-90.77422016	1
[waist]
13	0	-3.152148962	0	-11.48118973	0	0	1.0
14	0	-3.152148962	0	-11.48118973	0	0	1.0
15	0	-3.152148962	0	-11.48118973	0	0	1.0
16	0	-3.152148962	0	-11.48118973	0	0	1.0
17	0	-3.152148962	0	-11.48118973	0	0	1.0
[chest]
13	24.85774803	-0.2734639645	1.050145149	52.22753525	10.22970104	9.748950958	1.0
14	24.9197979	-0.2720498145	1.050432444	52.22753525	10.22970104	9.748950958	1.0
15	24.99049377	-0.2704386115	1.050759673	52.22753525	10.22970104	9.748950958	1.0
16	25.06882477	-0.2686534524	1.051122189	52.22753525	10.22970104	9.748950958	1.0
17	25.15398026	-0.266712755	1.051516414	52.22753525	10.22970104	9.748950958	1.0
[head]
13	20.62318993	0.1433748305	1.492195129	-14.68319607	-27.44283867	6.885741711	1.0
14	20.62318993	0.1433748305	1.492195129	-14.68319607	-27.44283867	6.885741711	1.0
15	20.62318993	0.1433748305	1.492195129	-14.68319607	-27.44283867	6.885741711	1.0
16	20.62318993	0.1433748305	1.492195129	-14.68319607	-27.44283867	6.885741711	1.0
17	20.62318993	0.1433748305	1.492195129	-14.68319607	-27.44283867	6.885741711	1.0
[joint2]
13	-1.657010078	17.01290512	0.01287616603	-10.35709095	-15.0103178	2.70999527	1.0
14	-1.657010078	17.01290512	0.01287616603	-10.35709095	-15.0103178	2.70999527	1.0
15	-1.657010078	17.01290512	0.01287616603	-10.35709095	-15.0103178	2.70999527	1.0
16	-1.657010078	17.01290512	0.01287616603	-10.35709095	-15.0103178	2.70999527	1.0
17	-1.657010078	17.01290512	0.01287616603	-10.35709095	-15.0103178	2.70999527	1.0
[right_shoulder1]
13	14.80163574	2.669381618	0.8250734806	0	-11.79370117	0	1.0
14	14.79511261	2.786319494	0.8180681467	0	-11.79370117	0	1.0
15	14.79613781	2.767955303	0.8191683292	0	-11.79370117	0	1.0
16	14.79929543	2.711336374	0.8225601912	0	-11.79370117	0	1.0
17	14.80471802	2.614113331	0.8283845186	0	-11.79370117	0	1.0
[right_elbow1]
13	-13.64346027	1.083028078	-0.5017899871	-21.23532486	22.14512062	-36.84340668	1.0
14	-13.64346027	1.083028078	-0.5017899871	-21.15211487	21.71596718	-36.65196228	1.0
15	-13.64346027	1.083028078	-0.5017899871	-21.16518402	21.78336334	-36.68202209	1.0
16	-13.64346027	1.083028078	-0.5017899871	-21.20547295	21.9911499	-36.77471924	1.0
17	-13.64346027	1.083028078	-0.5017899871	-21.27465057	22.34794998	-36.93388748	1.0
[right_wrist1]
13	-11.71433449	-0.1433260292	0.1367160529	0	44.31142807	0	1.0
14	-11.76294136	-0.1545606256	0.1004868671	0	44.86399841	0	1.0
15	-11.80042076	-0.1632234305	0.07255123556	0	45.29007339	0	1.0
16	-11.824543	-0.1687992364	0.0545703955	0	45.5643158	0	1.0
17	-11.83308125	-0.1707725078	0.0482070297	0	45.66137314	0	1.0
[right_hand1]
13	-7.870647907	-0.6475095749	0.1588415354	24.65711212	18.7375145	50.72195053	1.0
14	-7.870647907	-0.6475095749	0.1588415354	25.00402641	18.35185623	51.69459534	1.0
15	-7.870647907	-0.6475095749	0.1588415354	25.27152824	18.05448341	52.44458008	1.0
16	-7.870647907	-0.6475095749	0.1588415354	25.44370651	17.86308098	52.92731094	1.0
17	-7.870647907	-0.6475095749	0.1588415354	25.50463867	17.7953434	53.09814835	1.0
[right_finger3]
13	10.07661057	3.347557783	-1.489186764	-78.3791275	61.25396347	96.68160248	1.0
14	10.07661057	3.347557783	-1.489186764	-78.3791275	61.25396347	96.68160248	1.0
15	10.07661057	3.347557783	-1.489186764	-78.3791275	61.25396347	96.68160248	1.0
16	10.07661057	3.347557783	-1.489186764	-78.3791275	61.25396347	96.68160248	1.0
17	10.07661057	3.347557783	-1.489186764	-78.3791275	61.25396347	96.68160248	1.0
[right_finger4]
13	-1.201135993	3.376283169	11.27149582	-198.9912262	-2.457621098	60.21281433	1.0
14	-1.201135993	3.376283169	11.27149582	-198.9912262	-2.457621098	60.21281433	1.0
15	-1.201135993	3.376283169	11.27149582	-198.9912262	-2.457621098	60.21281433	1.0
16	-1.201135993	3.376283169	11.27149582	-198.9912262	-2.457621098	60.21281433	1.0
17	-1.201135993	3.376283169	11.27149582	-198.9912262	-2.457621098	60.21281433	1.0
[right_finger5]
13	-6.853637218	4.493112087	-5.936321735	32.59261322	-12.32942677	103.8147736	1.0
14	-6.853637218	4.493112087	-5.936321735	32.59261322	-12.32942677	103.8147736	1.0
15	-6.853637218	4.493112087	-5.936321735	32.59261322	-12.32942677	103.8147736	1.0
16	-6.853637218	4.493112087	-5.936321735	32.59261322	-12.32942677	103.8147736	1.0
17	-6.853637218	4.493112087	-5.936321735	32.59261322	-12.32942677	103.8147736	1.0
[joint3]
13	-1.657010078	-17.01289368	0.01287565939	-10.33717155	14.59749508	-2.632034063	1.0
14	-1.657010078	-17.01289368	0.01287565939	-10.33717155	14.59749508	-2.632034063	1.0
15	-1.657010078	-17.01289368	0.01287565939	-10.33717155	14.59749508	-2.632034063	1.0
16	-1.657010078	-17.01289368	0.01287565939	-10.33717155	14.59749508	-2.632034063	1.0
17	-1.657010078	-17.01289368	0.01287565939	-10.33717155	14.59749508	-2.632034063	1.0
[right_shoulder2]
13	-15.03044701	-2.690791845	-0.822948575	0	-34.23234558	0	1.0
14	-15.0369873	-2.808951855	-0.8158218861	0	-34.23234558	0	1.0
15	-15.03595924	-2.79039526	-0.8169411421	0	-34.23234558	0	1.0
16	-15.03279305	-2.733184814	-0.8203917146	0	-34.23234558	0	1.0
17	-15.0273571	-2.634945869	-0.8263169527	0	-34.23234558	0	1.0
[right_elbow2]
13	13.02228546	-0.6429510117	0	11.74322605	43.81481934	14.73702621	1.0
14	13.02228546	-0.6429510117	0	11.80351639	44.16414642	14.8289032	1.0
15	13.02228546	-0.6429510117	0	11.79404926	44.10928726	14.81447506	1.0
16	13.02228546	-0.6429510117	0	11.76485634	43.94015503	14.76998997	1.0
17	13.02228546	-0.6429510117	0	11.71473026	43.64971924	14.69360256	1.0
[right_wrist2]
13	12.0697403	-0.3687780499	1.155363441	0	37.07639313	0	1.0
14	12.08629704	-0.3778212667	1.225846767	0	36.59309387	0	1.0
15	12.09906387	-0.3847942948	1.280194998	0	36.22042847	0	1.0
16	12.10728073	-0.389282465	1.315176368	0	35.98056412	0	1.0
17	12.11018944	-0.3908708692	1.327556252	0	35.89567566	0	1.0
[right_hand2]
13	8.313048363	0.02588133886	-0.2132965624	0	0	0.1063780785	1.0
14	8.313048363	0.02588133886	-0.2132965624	0	0	1.602038741	1.0
15	8.313048363	0.02588133886	-0.2132965624	0	0	2.755313635	1.0
16	8.313048363	0.02588133886	-0.2132965624	0	0	3.497622252	1.0
17	8.313048363	0.02588133886	-0.2132965624	0	0	3.760322809	1.0
[right_finger6]
13	-10.07661057	-3.347557783	1.489186764	-82.56325531	41.54194641	91.40802002	1.0
14	-10.07661057	-3.347557783	1.489186764	-82.56325531	41.54194641	91.40802002	1.0
15	-10.07661057	-3.347557783	1.489186764	-82.56325531	41.54194641	91.40802002	1.0
16	-10.07661057	-3.347557783	1.489186764	-82.56325531	41.54194641	91.40802002	1.0
17	-10.07661057	-3.347557783	1.489186764	-82.56325531	41.54194641	91.40802002	1.0
[right_finger7]
13	1.201135993	-3.376283169	-11.27149582	-178.3618011	19.07616615	162.3161011	1.0
14	1.201135993	-3.376283169	-11.27149582	-178.3618011	19.07616615	162.3161011	1.0
15	1.201135993	-3.376283169	-11.27149582	-178.3618011	19.07616615	162.3161011	1.0
16	1.201135993	-3.376283169	-11.27149582	-178.3618011	19.07616615	162.3161011	1.0
17	1.201135993	-3.376283169	-11.27149582	-178.3618011	19.07616615	162.3161011	1.0
[right_finger8]
13	6.853637218	-4.493112087	5.936321735	28.57172203	20.40917206	52.71258163	1.0
14	6.853637218	-4.493112087	5.936321735	28.57172203	20.40917206	52.71258163	1.0
15	6.853637218	-4.493112087	5.936321735	28.57172203	20.40917206	52.71258163	1.0
16	6.853637218	-4.493112087	5.936321735	28.57172203	20.40917206	52.71258163	1.0
17	6.853637218	-4.493112087	5.936321735	28.57172203	20.40917206	52.71258163	1.0
[Center_pelvis]
13	-4.449423313	-0.3499910235	2.052391052	0	25.67634773	0	1.0
14	-4.509835243	-0.351367861	2.052111387	0	25.67634773	0	1.0
15	-4.582432747	-0.3530223668	2.051775455	0	25.67634773	0	1.0
16	-4.664393425	-0.3548903465	2.051396132	0	25.67634773	0	1.0
17	-4.753852844	-0.3569291532	2.050981998	0	25.67634773	0	1.0
[left_pelvs]
13	11.56761074	-1.428985596	-2.12720108	0	6.368044376	0	1.0
14	11.56956577	-1.349170208	-2.126670837	0	6.368044376	0	1.0
15	11.57193947	-1.252278209	-2.126027584	0	6.368044376	0	1.0
16	11.57463074	-1.142414927	-2.125297546	0	6.368044376	0	1.0
17	11.57756805	-1.022524357	-2.124501228	0	6.368044376	0	1.0
[left_leg]
13	8.450808053e-008	-5.682914734	0.3641465604	0	-2.860532284	0	1.0
14	8.450808053e-008	-5.682914734	0.3641465604	0	-2.116142988	0	1.0
15	8.450808053e-008	-5.682914734	0.3641465604	0	-1.212492466	0	1.0
16	8.450808053e-008	-5.682914734	0.3641465604	0	-0.1878650486	0	1.0
17	8.450808053e-008	-5.682914734	0.3641465604	0	0.9302802086	0	1.0
[left_knee]
13	-10.69747543	0.03457061574	-6.811455844e-009	0	-17.63609695	0	1.0
14	-10.69747543	0.03457061574	-6.811455844e-009	0	-16.64061356	0	1.0
15	-10.69747543	0.03457061574	-6.811455844e-009	0	-15.43214703	0	1.0
16	-10.69747543	0.03457061574	-6.811455844e-009	0	-14.06189919	0	1.0
17	-10.69747543	0.03457061574	-6.811455844e-009	0	-12.56658554	0	1.0
[left_foot]
13	-14.54718971	-0.01193539705	1.933258442e-009	-23.95181274	-1.798151851	-4.04049778	1.0
14	-14.54718971	-0.01193539705	1.933258442e-009	-23.95181274	-1.798151851	-4.04049778	1.0
15	-14.54718971	-0.01193539705	1.933258442e-009	-23.95181274	-1.798151851	-4.04049778	1.0
16	-14.54718971	-0.01193539705	1.933258442e-009	-23.95181274	-1.798151851	-4.04049778	1.0
17	-14.54718971	-0.01193539705	1.933258442e-009	-23.95181274	-1.798151851	-4.04049778	1.0
[right_pelvis]
13	-11.46406078	-0.9689572453	3.530273676	0	-9.894831657	0	1.0
14	-11.4621048	-0.889141798	3.530803919	0	-9.894831657	0	1.0
15	-11.4597311	-0.792249918	3.531447411	0	-9.894831657	0	1.0
16	-11.45703793	-0.6823865175	3.53217721	0	-9.894831657	0	1.0
17	-11.45410156	-0.5624960065	3.532973528	0	-9.894831657	0	1.0
[right_leg]
13	0.09169664979	-5.593489647	0.06310817599	0	-22.0575695	0	1.0
14	0.09169664979	-5.593489647	0.06310817599	0	-21.61221313	0	1.0
15	0.09169664979	-5.593489647	0.06310817599	0	-21.07156944	0	1.0
16	0.09169664979	-5.593489647	0.06310817599	0	-20.45854759	0	1.0
17	0.09169664979	-5.593489647	0.06310817599	0	-19.78957367	0	1.0
[right_knee]
13	10.69750977	-0.03459574655	-4.718447855e-015	0	-25.28171921	0	1.0
14	10.69750977	-0.03459574655	-4.718447855e-015	0	-24.72529793	0	1.0
15	10.69750977	-0.03459574655	-4.718447855e-015	0	-24.04982948	0	1.0
16	10.69750977	-0.03459574655	-4.718447855e-015	0	-23.28393364	0	1.0
17	10.69750977	-0.03459574655	-4.718447855e-015	0	-22.44813728	0	1.0
[right_foot]
13	14.54718685	0.01191107463	1.774880243e-010	0	0	0	1.0
14	14.54718685	0.01191107463	1.774880243e-010	0	0	0	1.0
15	14.54718685	0.01191107463	1.774880243e-010	0	0	0	1.0
16	14.54718685	0.01191107463	1.774880243e-010	0	0	0	1.0
17	14.54718685	0.01191107463	1.774880243e-010	0	0	0	1.0
[EndOfFile]
